<svg viewBox="0 0 512 512" xmlns="http://www.w3.org/2000/svg">
  <path fill="currentColor" d="M412.404,53.469H208.182c-66.002,0-119.511,53.51-119.511,119.511v27.073v108.918
  c0,8.567,0,17.134,0,25.7c0,17.576-4.864,39.988-26.327,48.711c-10.198,4.145-21.39-1.051-30.27-7.563
  L0,414.573c43.59,31.752,93.175,33.208,127.977,0.193c30.37-28.804,32.765-65.826,32.912-104.496
  c11.395,3.592,19.658,14.232,19.658,26.806v121.455h45.137h38.955V374.76h154.58v83.771H512V153.065
  C512,98.062,467.416,53.469,412.404,53.469z"/>
</svg>